<?xml version="1.0" encoding="UTF-8" standalone="no"?>
<!DOCTYPE svg PUBLIC "-//W3C//DTD SVG 1.1//EN" "http://www.w3.org/Graphics/SVG/1.1/DTD/svg11.dtd">
<svg version="1.1" xmlns="http://www.w3.org/2000/svg" xmlns:xlink="http://www.w3.org/1999/xlink" preserveAspectRatio="xMidYMid meet" viewBox="0 0 640 640" width="51" height="51"><defs><path d="M254.43 155.29L263.57 165.02L254.43 174.74L258.94 179.53L272.57 165.02L258.94 150.5L254.43 155.29Z" id="abmTorqNv"></path><path d="M235.13 165.02C235.13 179.1 246.55 190.52 260.63 190.52C274.72 190.52 286.13 179.1 286.13 165.02C286.13 150.93 274.72 139.52 260.63 139.52C246.55 139.52 235.13 150.93 235.13 165.02ZM245.44 180.21C237.04 171.82 237.04 158.21 245.44 149.82C253.83 141.43 267.44 141.42 275.83 149.82C279.86 153.85 282.13 159.32 282.13 165.02C282.13 170.72 279.87 176.19 275.83 180.21C267.44 188.61 253.83 188.61 245.44 180.21Z" id="ddVRtn1kp"></path></defs><g><g><g><use xlink:href="#abmTorqNv" opacity="1" fill="#008700" fill-opacity="1"></use><g><use xlink:href="#abmTorqNv" opacity="1" fill-opacity="0" stroke="#000000" stroke-width="1" stroke-opacity="0"></use></g></g><g><use xlink:href="#ddVRtn1kp" opacity="1" fill="#008700" fill-opacity="1"></use><g><use xlink:href="#ddVRtn1kp" opacity="1" fill-opacity="0" stroke="#000000" stroke-width="1" stroke-opacity="0"></use></g></g></g></g></svg>